<svg xmlns="http://www.w3.org/2000/svg" width="270" height="270" viewBox="0 0 270 270">
  <g fill="none" fill-rule="evenodd" transform="translate(8 26)">
    <g fill="#F8E81C" transform="rotate(-6 151.825 -1.308)">
      <ellipse cx="71.921" cy="71.848" rx="39.869" ry="39.828"/>
      <path d="M69.4884149,0 L73.4753099,0 L78.4589287,23.8970786 L64.5047962,23.8970786 L69.4884149,0 Z M103.123289,7.30590426 L106.643509,9.17763808 L99.8247841,32.6171734 L87.5040165,26.066105 L103.123289,7.30590426 Z M129.343392,29.2671788 L131.630181,32.533052 L114.913327,50.3221946 L106.909565,38.8916385 L129.343392,29.2671788 Z M142.465789,61.0553001 L142.95167,65.0124774 L119.840067,72.8712703 L118.139486,59.0211498 L142.465789,61.0553001 Z M139.268346,95.2972178 L137.839571,99.0193049 L113.743757,95.1079667 L118.74447,82.0806618 L139.268346,95.2972178 Z M120.615422,123.954904 L117.652582,126.622658 L97.9587645,112.19836 L108.328706,102.861222 L120.615422,123.954904 Z M90.6186056,140.809276 L86.7501385,141.773793 L76.133328,119.792206 L89.672963,116.416396 L90.6186056,140.809276 Z M56.2135864,141.773793 L52.3451193,140.809276 L53.2907618,116.416396 L66.8303969,119.792206 L56.2135864,141.773793 Z M25.3111433,126.622658 L22.3483029,123.954904 L34.6350191,102.861222 L45.0049604,112.19836 L25.3111433,126.622658 Z M5.12415419,99.0193049 L3.69537881,95.2972178 L24.2192544,82.0806618 L29.2199682,95.1079667 L5.12415419,99.0193049 Z M0.0120551409,65.0124774 L0.497935415,61.0553001 L24.8242391,59.0211498 L23.1236582,72.8712703 L0.0120551409,65.0124774 Z M11.3335438,32.533052 L13.6203329,29.2671788 L36.0541599,38.8916385 L28.0503983,50.3221946 L11.3335438,32.533052 Z M36.3202161,9.17763808 L39.8404354,7.30590426 L55.4597084,26.066105 L43.1389408,32.6171734 L36.3202161,9.17763808 Z"/>
    </g>
    <path fill="#DCDCDC" d="M205.005058,152.966971 C205.725313,153.01284 206.451692,153.036124 207.183499,153.036124 C225.868247,153.036124 241.015228,137.857254 241.015228,119.13317 C241.015228,101.478692 227.549352,86.9759605 210.348782,85.3766431 C204.649036,61.0842419 182.88322,43 156.902478,43 C126.580677,43 102,67.6324254 102,98.0180619 C102,99.7609106 102.080868,101.484832 102.239049,103.186263 C99.7911942,102.402192 97.1823996,101.978945 94.4749581,101.978945 C83.302978,101.978945 73.8106749,109.185637 70.3748111,119.213044 C62.2340803,120.467033 56,127.516674 56,136.025429 C56,144.928791 62.8257193,152.234564 71.5193,152.974453 L71.5193,153.036124 L205.005067,153.036124 L205.005067,152.966971 Z"/>
    <path fill="#8C8C8C" fill-rule="nonzero" d="M51.1000378,42.484166 L44.6757791,38.7406514 L50.0993832,35.4833163 C50.9713131,35.0596871 51.2411678,33.8789406 50.7453012,33.0108606 C50.2405132,32.1218734 49.1509832,31.9343935 48.3239159,32.4204874 L41.092642,36.6918249 L29.6001105,29.947946 L41.092557,23.2735582 L48.3238309,27.5379551 C48.5496728,27.7046135 48.8402594,27.8018665 49.1633884,27.8018665 C49.7762543,27.8018665 50.3252251,27.510193 50.7452163,26.9545224 C51.2294424,26.0724757 50.9712281,24.9056959 50.0992982,24.4820667 L44.6756941,21.2247317 L51.0999529,17.4813027 C51.9373012,16.9951231 52.2252539,15.9046891 51.7458709,15.0087613 C51.2879845,14.1475362 50.1550365,13.8489221 49.2921131,14.3559234 L42.835482,18.1341407 L42.7390447,11.6194706 C42.7239206,10.6124087 41.9642319,9.79976722 40.9635773,9.79976722 C39.9630926,9.79976722 39.1806329,10.6748734 39.1881949,11.6194706 L39.2522599,20.2176698 L27.8245581,26.8920577 L27.8245581,13.3487758 L35.0235446,9.20939399 C35.8639518,8.73015488 36.2301589,7.61195884 35.7336126,6.73693831 C35.2294193,5.84795105 34.1944381,5.58395396 33.3122273,6.08410034 L27.8245581,9.20947967 L27.8245581,1.8196177 C27.8245581,0.812555785 27.017373,0 26.0167184,0 C25.0160638,0 24.2412511,0.812555785 24.2412511,1.8196177 L24.2412511,9.27879926 L18.5594327,6.08401465 C17.6744179,5.59089449 16.666881,5.86868694 16.1703347,6.73685263 C15.6662264,7.6258399 15.9795841,8.71627382 16.8480303,9.2093083 L24.2412511,13.4112405 L24.2412511,26.8225667 L12.5547403,20.0231637 L12.619485,11.6193849 C12.7166021,10.6748734 11.8770446,9.79968154 10.87639,9.79968154 L10.8116453,9.79968154 C9.87565043,9.79968154 9.04654388,10.612323 9.03617793,11.6193849 L8.97143319,17.9395489 L2.67674889,14.2932873 C1.79793673,13.7793455 0.713249895,14.0849001 0.25527856,14.9391847 C-0.224104422,15.842053 0.0238288539,16.9047248 0.901281539,17.4186666 L7.26071058,21.1273929 L1.7077869,24.481981 C0.836451831,24.9056959 0.564387969,26.0863567 1.09475106,26.9545224 C1.43631781,27.5171335 1.9336288,27.8018665 2.61191918,27.8018665 C2.96657082,27.8018665 3.26200057,27.711554 3.54782906,27.5379551 L10.8115603,23.2110077 L22.4657837,29.947946 L10.8115603,36.7542896 L3.54782906,32.4204874 C2.67589922,31.9065457 1.5519577,32.1496355 1.0946661,33.0108606 C0.615283114,33.9067884 0.87562155,34.9833413 1.70761697,35.4833163 L7.26062561,38.8031161 L0.901111606,42.5466308 C0.0257830915,43.0605725 -0.258006196,44.1440659 0.255108626,45.0261127 C0.614008611,45.6373075 1.09475106,45.9360072 1.77244668,45.9360072 C1.9336288,45.9360072 2.2565878,45.8387541 2.67674889,45.6720958 L8.97143319,42.0258342 L9.03617793,48.3459981 C9.04654388,49.35306 9.87565043,50.1309132 10.8116453,50.1309132 L10.87639,50.1309132 C11.8770446,50.1309132 12.627047,49.2905096 12.619485,48.2765072 L12.5547403,39.879669 L24.2412511,33.1428163 L24.2412511,46.4846516 L16.8480303,50.6864981 C15.9658195,51.1865588 15.6572199,52.2769927 16.1703347,53.1590395 C16.5291497,53.7771748 17.0098922,54.0757888 17.6875028,54.0757888 C18.0105468,54.0757888 18.3080158,54.0202646 18.5594327,53.8743422 L24.2412511,50.623862 L24.2412511,58.2081444 C24.2412511,59.2152063 25.0160638,60 26.0167184,60 C27.017373,60 27.8245581,59.2152063 27.8245581,58.2081444 L27.8245581,50.7488772 L33.3122273,53.8743422 C33.5634743,54.0201789 33.8610282,54.0757888 34.1517847,54.0757888 C34.8616828,54.0757888 35.3851636,53.7841153 35.7336126,53.1590395 C36.2239563,52.2839333 35.9071999,51.1864731 35.0235446,50.6864981 L27.8245581,46.6166073 L27.8245581,33.0733254 L39.2522599,39.7477133 L39.1881949,48.2765072 C39.1798682,49.2905096 39.9630076,50.1309132 40.9636623,50.1309132 C41.9643169,50.1309132 42.7239206,49.35306 42.7390447,48.3459981 L42.835482,41.7966254 L49.2921131,45.6095454 C49.5414059,45.7553821 49.8732864,45.8040515 50.2287028,45.8040515 C50.9064833,45.8040515 51.4036244,45.5193185 51.7457859,44.9567074 C52.2756392,44.0885417 51.9373862,42.9703457 51.1000378,42.484166 Z" transform="translate(123 158)"/>
  </g>
</svg>
