<svg xmlns="http://www.w3.org/2000/svg" width="270" height="270" viewBox="0 0 270 270">
  <g fill="none" fill-rule="evenodd" transform="translate(9 26)">
    <g fill="#F8E81C" transform="rotate(-6 151.325 7.716)">
      <ellipse cx="71.921" cy="71.325" rx="39.869" ry="39.539"/>
      <path d="M69.4884149,0 L73.4753099,0 L78.4589287,23.7231452 L64.5047962,23.7231452 L69.4884149,0 Z M103.082461,7.24591706 L106.60268,9.11765088 L99.8656125,32.4036121 L87.5448448,25.8525437 L103.082461,7.24591706 Z M129.272153,29.0422743 L131.558942,32.3081475 L114.984565,49.9975261 L106.980804,38.5669699 L129.272153,29.0422743 Z M142.379471,60.596512 L142.865351,64.5536893 L119.926385,72.391285 L118.225804,58.5411645 L142.379471,60.596512 Z M139.187156,94.5900576 L137.75838,98.3121447 L113.824947,94.4631387 L118.825661,81.4358338 L139.187156,94.5900576 Z M120.55723,123.042998 L117.59439,125.710752 L98.0169565,111.415711 L108.386898,102.078574 L120.55723,123.042998 Z M90.5975665,139.780895 L86.7290993,140.745412 L76.1543671,118.932592 L89.6940022,115.556782 L90.5975665,139.780895 Z M56.2346256,140.745412 L52.3661584,139.780895 L53.2697227,115.556782 L66.8093578,118.932592 L56.2346256,140.745412 Z M25.3693353,125.710752 L22.406495,123.042998 L34.576827,102.078574 L44.9467684,111.415711 L25.3693353,125.710752 Z M5.20534458,98.3121447 L3.7765692,94.5900576 L24.138064,81.4358338 L29.1387778,94.4631387 L5.20534458,98.3121447 Z M0.0983735811,64.5536893 L0.584253855,60.596512 L24.7379207,58.5411645 L23.0373397,72.391285 L0.0983735811,64.5536893 Z M11.4047828,32.3081475 L13.6915718,29.0422743 L35.982921,38.5669699 L27.9791594,49.9975261 L11.4047828,32.3081475 Z M36.3610445,9.11765088 L39.8812638,7.24591706 L55.41888,25.8525437 L43.0981124,32.4036121 L36.3610445,9.11765088 Z"/>
    </g>
    <path fill="#DCDCDC" d="M204.005058,152.966971 C204.725313,153.01284 205.451692,153.036124 206.183499,153.036124 C224.868247,153.036124 240.015228,137.857254 240.015228,119.13317 C240.015228,101.478692 226.549352,86.9759605 209.348782,85.3766431 C203.649036,61.0842419 181.88322,43 155.902478,43 C125.580677,43 101,67.6324254 101,98.0180619 C101,99.7609106 101.080868,101.484832 101.239049,103.186263 C98.7911942,102.402192 96.1823996,101.978945 93.4749581,101.978945 C82.302978,101.978945 72.8106749,109.185637 69.3748111,119.213044 C61.2340803,120.467033 55,127.516674 55,136.025429 C55,144.928791 61.8257193,152.234564 70.5193,152.974453 L70.5193,153.036124 L204.005067,153.036124 L204.005067,152.966971 Z"/>
    <g transform="translate(86 158)">
      <path fill="#4DC2D9" d="M20.5,60 C31.8218374,60 41,50.9722991 41,39.8360656 C41,28.6998321 20.5,0 20.5,0 C20.5,0 0,28.6998321 0,39.8360656 C0,50.9722991 9.17816263,60 20.5,60 Z"/>
      <path fill="#8C8C8C" fill-rule="nonzero" d="M125.100038,42.484166 L118.675779,38.7406514 L124.099383,35.4833163 C124.971313,35.0596871 125.241168,33.8789406 124.745301,33.0108606 C124.240513,32.1218734 123.150983,31.9343935 122.323916,32.4204874 L115.092642,36.6918249 L103.60011,29.947946 L115.092557,23.2735582 L122.323831,27.5379551 C122.549673,27.7046135 122.840259,27.8018665 123.163388,27.8018665 C123.776254,27.8018665 124.325225,27.510193 124.745216,26.9545224 C125.229442,26.0724757 124.971228,24.9056959 124.099298,24.4820667 L118.675694,21.2247317 L125.099953,17.4813027 C125.937301,16.9951231 126.225254,15.9046891 125.745871,15.0087613 C125.287985,14.1475362 124.155037,13.8489221 123.292113,14.3559234 L116.835482,18.1341407 L116.739045,11.6194706 C116.723921,10.6124087 115.964232,9.79976722 114.963577,9.79976722 C113.963093,9.79976722 113.180633,10.6748734 113.188195,11.6194706 L113.25226,20.2176698 L101.824558,26.8920577 L101.824558,13.3487758 L109.023545,9.20939399 C109.863952,8.73015488 110.230159,7.61195884 109.733613,6.73693831 C109.229419,5.84795105 108.194438,5.58395396 107.312227,6.08410034 L101.824558,9.20947967 L101.824558,1.8196177 C101.824558,0.812555785 101.017373,0 100.016718,0 C99.0160638,0 98.2412511,0.812555785 98.2412511,1.8196177 L98.2412511,9.27879926 L92.5594327,6.08401465 C91.6744179,5.59089449 90.666881,5.86868694 90.1703347,6.73685263 C89.6662264,7.6258399 89.9795841,8.71627382 90.8480303,9.2093083 L98.2412511,13.4112405 L98.2412511,26.8225667 L86.5547403,20.0231637 L86.619485,11.6193849 C86.7166021,10.6748734 85.8770446,9.79968154 84.87639,9.79968154 L84.8116453,9.79968154 C83.8756504,9.79968154 83.0465439,10.612323 83.0361779,11.6193849 L82.9714332,17.9395489 L76.6767489,14.2932873 C75.7979367,13.7793455 74.7132499,14.0849001 74.2552786,14.9391847 C73.7758956,15.842053 74.0238289,16.9047248 74.9012815,17.4186666 L81.2607106,21.1273929 L75.7077869,24.481981 C74.8364518,24.9056959 74.564388,26.0863567 75.0947511,26.9545224 C75.4363178,27.5171335 75.9336288,27.8018665 76.6119192,27.8018665 C76.9665708,27.8018665 77.2620006,27.711554 77.5478291,27.5379551 L84.8115603,23.2110077 L96.4657837,29.947946 L84.8115603,36.7542896 L77.5478291,32.4204874 C76.6758992,31.9065457 75.5519577,32.1496355 75.0946661,33.0108606 C74.6152831,33.9067884 74.8756215,34.9833413 75.707617,35.4833163 L81.2606256,38.8031161 L74.9011116,42.5466308 C74.0257831,43.0605725 73.7419938,44.1440659 74.2551086,45.0261127 C74.6140086,45.6373075 75.0947511,45.9360072 75.7724467,45.9360072 C75.9336288,45.9360072 76.2565878,45.8387541 76.6767489,45.6720958 L82.9714332,42.0258342 L83.0361779,48.3459981 C83.0465439,49.35306 83.8756504,50.1309132 84.8116453,50.1309132 L84.87639,50.1309132 C85.8770446,50.1309132 86.627047,49.2905096 86.619485,48.2765072 L86.5547403,39.879669 L98.2412511,33.1428163 L98.2412511,46.4846516 L90.8480303,50.6864981 C89.9658195,51.1865588 89.6572199,52.2769927 90.1703347,53.1590395 C90.5291497,53.7771748 91.0098922,54.0757888 91.6875028,54.0757888 C92.0105468,54.0757888 92.3080158,54.0202646 92.5594327,53.8743422 L98.2412511,50.623862 L98.2412511,58.2081444 C98.2412511,59.2152063 99.0160638,60 100.016718,60 C101.017373,60 101.824558,59.2152063 101.824558,58.2081444 L101.824558,50.7488772 L107.312227,53.8743422 C107.563474,54.0201789 107.861028,54.0757888 108.151785,54.0757888 C108.861683,54.0757888 109.385164,53.7841153 109.733613,53.1590395 C110.223956,52.2839333 109.9072,51.1864731 109.023545,50.6864981 L101.824558,46.6166073 L101.824558,33.0733254 L113.25226,39.7477133 L113.188195,48.2765072 C113.179868,49.2905096 113.963008,50.1309132 114.963662,50.1309132 C115.964317,50.1309132 116.723921,49.35306 116.739045,48.3459981 L116.835482,41.7966254 L123.292113,45.6095454 C123.541406,45.7553821 123.873286,45.8040515 124.228703,45.8040515 C124.906483,45.8040515 125.403624,45.5193185 125.745786,44.9567074 C126.275639,44.0885417 125.937386,42.9703457 125.100038,42.484166 Z"/>
    </g>
  </g>
</svg>
