<svg xmlns="http://www.w3.org/2000/svg" width="270" height="270" viewBox="0 0 270 270">
  <g fill="#CCCCCC">
    <path d="M222.416648 113.760189C221.117906 112.682815 209.50344 103.1722 201.339918 103.1722 196.516019 103.1722 192.805327 106.181418 189.502811 108.856278 186.942434 110.899574 184.530484 112.868569 182.304069 112.868569 180.300296 112.868569 177.999667 110.973876 175.55061 108.967731 172.248094 106.25572 168.500296 103.1722 163.602182 103.1722 158.741176 103.1722 155.104698 106.218569 151.876396 108.893429 149.390233 110.973876 147.089604 112.90572 144.900296 112.90572 142.636774 112.90572 140.224824 110.936725 137.664447 108.819128 134.473252 106.181418 130.836774 103.209351 126.198409 103.209351 121.374509 103.209351 117.663818 106.218569 114.361302 108.893429 111.800925 110.936725 109.388975 112.90572 107.16256 112.90572 104.973252 112.90572 102.635516 110.936725 100.186459 108.893429 96.9581572 106.218569 93.3216792 103.1722 88.460673 103.1722 83.5996667 103.1722 79.9631887 106.218569 76.7348868 108.893429 74.2487233 110.973876 71.9480943 112.90572 69.7587862 112.90572 65.8254528 112.90572 57.6248239 107.704602 53.060673 104.026669 51.4650755 102.72639 49.1273396 102.986446 47.8285975 104.583932 46.5298553 106.181418 46.7896038 108.521921 48.3852013 109.8222 49.7210503 110.899574 61.6323711 120.373038 69.7587862 120.373038 74.6197925 120.373038 78.2562704 117.326669 81.4845723 114.651809 83.9707358 112.571362 86.2713648 110.639519 88.460673 110.639519 90.6499811 110.639519 92.987717 112.608513 95.4367736 114.651809 98.6650755 117.326669 102.301553 120.373038 107.16256 120.373038 111.986459 120.373038 115.697151 117.36382 118.999667 114.68896 121.560044 112.645664 123.971994 110.676669 126.198409 110.676669 128.202182 110.676669 130.502811 112.571362 132.951868 114.577507 136.254384 117.289519 140.002182 120.373038 144.900296 120.373038 149.761302 120.373038 153.39778 117.326669 156.626082 114.651809 159.112245 112.571362 161.412874 110.639519 163.602182 110.639519 165.865704 110.639519 168.277654 112.608513 170.838031 114.726111 174.029226 117.36382 177.665704 120.335887 182.304069 120.335887 187.127969 120.335887 190.83866 117.326669 194.141176 114.651809 196.701553 112.608513 199.113503 110.639519 201.339918 110.639519 205.236145 110.639519 213.214132 115.803485 217.629855 119.481418 218.334887 120.038681 219.151239 120.335887 220.004698 120.335887L220.004698 120.335887C221.080799 120.335887 222.119792 119.890077 222.899038 118.998457 224.19778 117.400971 223.975138 115.060468 222.416648 113.760189zM48.3852013 75.0426844C49.7210503 76.1200587 61.6323711 85.5935223 69.7587862 85.5935223 74.6197925 85.5935223 78.2562704 82.5471536 81.4845723 79.8722933 83.9707358 77.7918464 86.2713648 75.8600028 88.460673 75.8600028 90.6499811 75.8600028 92.987717 77.8289972 95.4367736 79.8722933 98.6650755 82.5471536 102.301553 85.5935223 107.16256 85.5935223 111.986459 85.5935223 115.697151 82.5843045 118.999667 79.9094441 121.560044 77.866148 123.971994 75.8971536 126.198409 75.8971536 128.202182 75.8971536 130.502811 77.7918464 132.951868 79.7979916 136.254384 82.5100028 140.002182 85.5935223 144.900296 85.5935223 149.761302 85.5935223 153.39778 82.5471536 156.626082 79.8722933 159.112245 77.7918464 161.412874 75.8600028 163.602182 75.8600028 165.865704 75.8600028 168.277654 77.8289972 170.838031 79.946595 174.029226 82.5843045 177.665704 85.5563715 182.304069 85.5563715 187.127969 85.5563715 190.83866 82.5471536 194.141176 79.8722933 196.701553 77.8289972 199.113503 75.8600028 201.339918 75.8600028 205.236145 75.8600028 213.214132 81.0239693 217.629855 84.7019022 218.334887 85.2591648 219.151239 85.5563715 220.004698 85.5563715L220.004698 85.5563715C221.080799 85.5563715 222.119792 85.1105615 222.899038 84.2189413 224.19778 82.6214553 223.975138 80.2809525 222.416648 78.9806732 221.117906 77.866148 209.50344 68.3926844 201.339918 68.3926844 196.516019 68.3926844 192.805327 71.4019022 189.502811 74.0767626 186.942434 76.1200587 184.530484 78.0890531 182.304069 78.0890531 180.300296 78.0890531 177.999667 76.1943603 175.55061 74.1882151 172.248094 71.4762039 168.500296 68.3926844 163.602182 68.3926844 158.741176 68.3926844 155.104698 71.4390531 151.876396 74.1139134 149.390233 76.1943603 147.089604 78.1262039 144.900296 78.1262039 142.636774 78.1262039 140.224824 76.1572095 137.664447 74.0396117 134.473252 71.4019022 130.836774 68.4298352 126.198409 68.4298352 121.374509 68.4298352 117.663818 71.4390531 114.361302 74.1139134 111.800925 76.1572095 109.388975 78.1262039 107.16256 78.1262039 104.973252 78.1262039 102.635516 76.1572095 100.186459 74.1139134 96.9581572 71.4390531 93.3216792 68.3926844 88.460673 68.3926844 83.5996667 68.3926844 79.9631887 71.4390531 76.7348868 74.1139134 74.2487233 76.1943603 71.9480943 78.1262039 69.7587862 78.1262039 65.8254528 78.1262039 57.6248239 72.9250866 53.060673 69.2471536 51.4650755 67.9468743 49.1273396 68.2069302 47.8285975 69.8044162 46.5298553 71.4019022 46.7896038 73.742405 48.3852013 75.0426844zM222.416648 183.319221C221.117906 182.241846 209.50344 172.731232 201.339918 172.731232 196.516019 172.731232 192.805327 175.74045 189.502811 178.41531 186.942434 180.458606 184.530484 182.427601 182.304069 182.427601 180.300296 182.427601 177.999667 180.532908 175.55061 178.526763 172.248094 175.814751 168.500296 172.731232 163.602182 172.731232 158.741176 172.731232 155.104698 175.777601 151.876396 178.452461 149.390233 180.532908 147.089604 182.464751 144.900296 182.464751 142.636774 182.464751 140.224824 180.495757 137.664447 178.378159 134.473252 175.74045 130.836774 172.768383 126.198409 172.768383 121.374509 172.768383 117.663818 175.777601 114.361302 178.452461 111.800925 180.495757 109.388975 182.464751 107.16256 182.464751 104.973252 182.464751 102.635516 180.495757 100.186459 178.452461 96.9581572 175.777601 93.3216792 172.731232 88.460673 172.731232 83.5996667 172.731232 79.9631887 175.777601 76.7348868 178.452461 74.2487233 180.532908 71.9480943 182.464751 69.7587862 182.464751 65.8254528 182.464751 57.6248239 177.263634 53.060673 173.585701 51.4650755 172.285422 49.1273396 172.545478 47.8285975 174.142964 46.5298553 175.74045 46.7896038 178.080953 48.3852013 179.381232 49.7210503 180.458606 61.6323711 189.93207 69.7587862 189.93207 74.6197925 189.93207 78.2562704 186.885701 81.4845723 184.210841 83.9707358 182.130394 86.2713648 180.19855 88.460673 180.19855 90.6499811 180.19855 92.987717 182.167545 95.4367736 184.210841 98.6650755 186.885701 102.301553 189.93207 107.16256 189.93207 111.986459 189.93207 115.697151 186.922852 118.999667 184.247992 121.560044 182.204696 123.971994 180.235701 126.198409 180.235701 128.202182 180.235701 130.502811 182.130394 132.951868 184.136539 136.254384 186.84855 140.002182 189.93207 144.900296 189.93207 149.761302 189.93207 153.39778 186.885701 156.626082 184.210841 159.112245 182.130394 161.412874 180.19855 163.602182 180.19855 165.865704 180.19855 168.277654 182.167545 170.838031 184.285142 174.029226 186.922852 177.665704 189.894919 182.304069 189.894919 187.127969 189.894919 190.83866 186.885701 194.141176 184.210841 196.701553 182.167545 199.113503 180.19855 201.339918 180.19855 205.236145 180.19855 213.214132 185.362517 217.629855 189.04045 218.334887 189.597712 219.151239 189.894919 220.004698 189.894919L220.004698 189.894919C221.080799 189.894919 222.119792 189.449109 222.899038 188.557489 224.19778 186.960003 223.975138 184.6195 222.416648 183.319221zM222.416648 148.539705C221.117906 147.462331 209.50344 137.951716 201.339918 137.951716 196.516019 137.951716 192.805327 140.960934 189.502811 143.635794 186.942434 145.67909 184.530484 147.648085 182.304069 147.648085 180.300296 147.648085 177.999667 145.753392 175.55061 143.747247 172.248094 141.035236 168.500296 137.951716 163.602182 137.951716 158.741176 137.951716 155.104698 140.998085 151.876396 143.672945 149.390233 145.753392 147.089604 147.685236 144.900296 147.685236 142.636774 147.685236 140.224824 145.716241 137.664447 143.598643 134.473252 140.960934 130.836774 137.988867 126.198409 137.988867 121.374509 137.988867 117.663818 140.998085 114.361302 143.672945 111.800925 145.716241 109.388975 147.685236 107.16256 147.685236 104.973252 147.685236 102.635516 145.716241 100.186459 143.672945 96.9581572 140.998085 93.3216792 137.951716 88.460673 137.951716 83.5996667 137.951716 79.9631887 140.998085 76.7348868 143.672945 74.2487233 145.753392 71.9480943 147.685236 69.7587862 147.685236 65.8254528 147.685236 57.6248239 142.484118 53.060673 138.806185 51.4650755 137.505906 49.1273396 137.765962 47.8285975 139.363448 46.5298553 140.960934 46.7896038 143.301437 48.3852013 144.601716 49.7210503 145.67909 61.6323711 155.152554 69.7587862 155.152554 74.6197925 155.152554 78.2562704 152.106185 81.4845723 149.431325 83.9707358 147.350878 86.2713648 145.419034 88.460673 145.419034 90.6499811 145.419034 92.987717 147.388029 95.4367736 149.431325 98.6650755 152.106185 102.301553 155.152554 107.16256 155.152554 111.986459 155.152554 115.697151 152.143336 118.999667 149.468476 121.560044 147.42518 123.971994 145.456185 126.198409 145.456185 128.202182 145.456185 130.502811 147.350878 132.951868 149.357023 136.254384 152.069034 140.002182 155.152554 144.900296 155.152554 149.761302 155.152554 153.39778 152.106185 156.626082 149.431325 159.112245 147.350878 161.412874 145.419034 163.602182 145.419034 165.865704 145.419034 168.277654 147.388029 170.838031 149.505627 174.029226 152.143336 177.665704 155.115403 182.304069 155.115403 187.127969 155.115403 190.83866 152.106185 194.141176 149.431325 196.701553 147.388029 199.113503 145.419034 201.339918 145.419034 205.236145 145.419034 213.214132 150.583001 217.629855 154.260934 218.334887 154.818196 219.151239 155.115403 220.004698 155.115403L220.004698 155.115403C221.080799 155.115403 222.119792 154.632442 222.899038 153.777973 224.19778 152.180487 223.975138 149.839984 222.416648 148.539705z"/>
  </g>
</svg>
