<svg xmlns="http://www.w3.org/2000/svg" width="270" height="270" viewBox="0 0 270 270">
  <g fill="none" fill-rule="evenodd" transform="translate(8 26)">
    <g fill="#F8E81C" transform="rotate(-6 151.825 -1.308)">
      <ellipse cx="71.921" cy="71.848" rx="39.869" ry="39.828"/>
      <path d="M69.4884149,0 L73.4753099,0 L78.4589287,23.8970786 L64.5047962,23.8970786 L69.4884149,0 Z M103.123289,7.30590426 L106.643509,9.17763808 L99.8247841,32.6171734 L87.5040165,26.066105 L103.123289,7.30590426 Z M129.343392,29.2671788 L131.630181,32.533052 L114.913327,50.3221946 L106.909565,38.8916385 L129.343392,29.2671788 Z M142.465789,61.0553001 L142.95167,65.0124774 L119.840067,72.8712703 L118.139486,59.0211498 L142.465789,61.0553001 Z M139.268346,95.2972178 L137.839571,99.0193049 L113.743757,95.1079667 L118.74447,82.0806618 L139.268346,95.2972178 Z M120.615422,123.954904 L117.652582,126.622658 L97.9587645,112.19836 L108.328706,102.861222 L120.615422,123.954904 Z M90.6186056,140.809276 L86.7501385,141.773793 L76.133328,119.792206 L89.672963,116.416396 L90.6186056,140.809276 Z M56.2135864,141.773793 L52.3451193,140.809276 L53.2907618,116.416396 L66.8303969,119.792206 L56.2135864,141.773793 Z M25.3111433,126.622658 L22.3483029,123.954904 L34.6350191,102.861222 L45.0049604,112.19836 L25.3111433,126.622658 Z M5.12415419,99.0193049 L3.69537881,95.2972178 L24.2192544,82.0806618 L29.2199682,95.1079667 L5.12415419,99.0193049 Z M0.0120551409,65.0124774 L0.497935415,61.0553001 L24.8242391,59.0211498 L23.1236582,72.8712703 L0.0120551409,65.0124774 Z M11.3335438,32.533052 L13.6203329,29.2671788 L36.0541599,38.8916385 L28.0503983,50.3221946 L11.3335438,32.533052 Z M36.3202161,9.17763808 L39.8404354,7.30590426 L55.4597084,26.066105 L43.1389408,32.6171734 L36.3202161,9.17763808 Z"/>
    </g>
    <path fill="#DCDCDC" d="M205.005058,152.966971 C205.725313,153.01284 206.451692,153.036124 207.183499,153.036124 C225.868247,153.036124 241.015228,137.857254 241.015228,119.13317 C241.015228,101.478692 227.549352,86.9759605 210.348782,85.3766431 C204.649036,61.0842419 182.88322,43 156.902478,43 C126.580677,43 102,67.6324254 102,98.0180619 C102,99.7609106 102.080868,101.484832 102.239049,103.186263 C99.7911942,102.402192 97.1823996,101.978945 94.4749581,101.978945 C83.302978,101.978945 73.8106749,109.185637 70.3748111,119.213044 C62.2340803,120.467033 56,127.516674 56,136.025429 C56,144.928791 62.8257193,152.234564 71.5193,152.974453 L71.5193,153.036124 L205.005067,153.036124 L205.005067,152.966971 Z"/>
    <path fill="#4DC2D9" d="M148.5,218 C159.821837,218 169,208.972299 169,197.836066 C169,186.699832 148.5,158 148.5,158 C148.5,158 128,186.699832 128,197.836066 C128,208.972299 137.178163,218 148.5,218 Z"/>
  </g>
</svg>
