<svg xmlns="http://www.w3.org/2000/svg" width="270" height="270" viewBox="0 0 270 270">
  <g fill="none" fill-rule="evenodd">
    <g fill="#F8E81C" transform="rotate(-6 361.676 -172.595)">
      <ellipse cx="71.915" cy="71.325" rx="39.311" ry="39.539"/>
      <path d="M69.516549,-2.13162821e-14 L73.4476832,-2.13162821e-14 L78.361601,23.7231452 L64.6026312,23.7231452 L69.516549,-2.13162821e-14 Z M102.718632,7.25900611 L106.189617,9.10456183 L99.3910071,32.3578004 L87.2425579,25.8983554 L102.718632,7.25900611 Z M128.600045,29.0651126 L130.854851,32.2853092 L114.240496,49.9175921 L106.348675,38.6469039 L128.600045,29.0651126 Z M141.552809,60.6241846 L142.031894,64.5260167 L119.084434,72.294431 L117.407637,58.6380185 L141.552809,60.6241846 Z M138.39536,94.6160862 L136.986567,98.2861161 L113.078112,94.3720387 L118.008886,81.5269338 L138.39536,94.6160862 Z M119.982121,123.061654 L117.060719,125.692096 L97.5350838,111.350416 L107.759991,102.143868 L119.982121,123.061654 Z M90.3706016,139.787639 L86.5562388,140.738667 L76.0491372,118.908985 L89.3994067,115.580389 L90.3706016,139.787639 Z M56.4079934,140.738667 L52.5936307,139.787639 L53.5648255,115.580389 L66.9150951,118.908985 L56.4079934,140.738667 Z M25.9035133,125.692096 L22.9821112,123.061654 L35.2042412,102.143868 L45.4291484,111.350416 L25.9035133,125.692096 Z M5.97766519,98.2861161 L4.56887268,94.6160862 L24.9553461,81.5269338 L29.8861198,94.3720387 L5.97766519,98.2861161 Z M0.932338171,64.5260167 L1.41142292,60.6241846 L25.5565953,58.6380185 L23.8797987,72.294431 L0.932338171,64.5260167 Z M12.1093812,32.2853092 L14.3641871,29.0651126 L36.6155575,38.6469039 L28.7237366,49.9175921 L12.1093812,32.2853092 Z M36.7746149,9.10456183 L40.2456004,7.25900611 L55.7216743,25.8983554 L43.5732251,32.3578004 L36.7746149,9.10456183 Z"/>
    </g>
    <path fill="#DCDCDC" d="M219.005058,173.966971 C219.725313,174.01284 220.451692,174.036124 221.183499,174.036124 C239.868247,174.036124 255.015228,158.857254 255.015228,140.13317 C255.015228,122.478692 241.549352,107.97596 224.348782,106.376643 C218.649036,82.0842419 196.88322,64 170.902478,64 C140.580677,64 116,88.6324254 116,119.018062 C116,120.760911 116.080868,122.484832 116.239049,124.186263 C113.791194,123.402192 111.1824,122.978945 108.474958,122.978945 C97.302978,122.978945 87.8106749,130.185637 84.3748111,140.213044 C76.2340803,141.467033 70,148.516674 70,157.025429 C70,165.928791 76.8257193,173.234564 85.5193,173.974453 L85.5193,174.036124 L219.005067,174.036124 L219.005067,173.966971 Z"/>
    <path fill="#F8E81C" fill-rule="nonzero" d="M199.185287,181.995682 C198.629751,180.749444 197.392976,179.946892 196.028468,179.946892 L170.025767,179.946892 L180.721511,151.679134 C181.123294,150.6174 180.977989,149.425905 180.332568,148.491565 C179.687485,147.557563 178.624737,147 177.489336,147 L151.764065,147 C150.327243,147 149.040117,147.889059 148.531552,149.232954 L132.223686,192.33222 C131.821903,193.393955 131.967207,194.585449 132.612628,195.519789 C133.258049,196.453792 134.320798,197.011692 135.456198,197.011692 L164.313958,196.838341 L149.066813,237.390051 C148.865414,237.925987 149.073909,238.529507 149.563213,238.826874 C150.052516,239.124241 150.684421,239.030976 151.06728,238.6052 L198.599339,185.713443 C199.511039,184.698341 199.740822,183.241919 199.185287,181.995682 Z"/>
  </g>
</svg>
