<svg xmlns="http://www.w3.org/2000/svg" width="270" height="270" viewBox="0 0 270 270">
  <g fill="none" fill-rule="evenodd" transform="translate(29 41)">
    <path fill="#DCDCDC" d="M28.4444444,119.810869 C27.4248934,119.93572 26.3866201,120 25.3333333,120 C11.3421197,120 0,108.65788 0,94.6666667 C0,80.675453 11.3421197,69.3333333 25.3333333,69.3333333 C26.9723932,69.3333333 28.5750971,69.4889919 30.1274688,69.7863329 C29.6050258,66.6016404 29.3333333,63.3325488 29.3333333,60 C29.3333333,26.862915 56.1962483,0 89.3333333,0 C116.016548,0 138.631546,17.4181018 146.428504,41.5044801 C149.895109,40.524422 153.552979,40 157.333333,40 C179.424723,40 197.333333,57.90861 197.333333,80 C197.333333,83.7061299 196.829303,87.2945371 195.886049,90.7004132 C196.217432,90.6780364 196.551833,90.6666667 196.888889,90.6666667 C204.989065,90.6666667 211.555556,97.233157 211.555556,105.333333 C211.555556,113.43351 204.989065,120 196.888889,120 C196.439436,120 195.994705,119.979783 195.555556,119.940209 L195.555556,120 L28.4444444,120 L28.4444444,119.810869 Z"/>
    <path fill="#8C8C8C" fill-rule="nonzero" d="M131.100038,170.484166 L124.675779,166.740651 L130.099383,163.483316 C130.971313,163.059687 131.241168,161.878941 130.745301,161.010861 C130.240513,160.121873 129.150983,159.934393 128.323916,160.420487 L121.092642,164.691825 L109.60011,157.947946 L121.092557,151.273558 L128.323831,155.537955 C128.549673,155.704613 128.840259,155.801867 129.163388,155.801867 C129.776254,155.801867 130.325225,155.510193 130.745216,154.954522 C131.229442,154.072476 130.971228,152.905696 130.099298,152.482067 L124.675694,149.224732 L131.099953,145.481303 C131.937301,144.995123 132.225254,143.904689 131.745871,143.008761 C131.287985,142.147536 130.155037,141.848922 129.292113,142.355923 L122.835482,146.134141 L122.739045,139.619471 C122.723921,138.612409 121.964232,137.799767 120.963577,137.799767 C119.963093,137.799767 119.180633,138.674873 119.188195,139.619471 L119.25226,148.21767 L107.824558,154.892058 L107.824558,141.348776 L115.023545,137.209394 C115.863952,136.730155 116.230159,135.611959 115.733613,134.736938 C115.229419,133.847951 114.194438,133.583954 113.312227,134.0841 L107.824558,137.20948 L107.824558,129.819618 C107.824558,128.812556 107.017373,128 106.016718,128 C105.016064,128 104.241251,128.812556 104.241251,129.819618 L104.241251,137.278799 L98.5594327,134.084015 C97.6744179,133.590894 96.666881,133.868687 96.1703347,134.736853 C95.6662264,135.62584 95.9795841,136.716274 96.8480303,137.209308 L104.241251,141.411241 L104.241251,154.822567 L92.5547403,148.023164 L92.619485,139.619385 C92.7166021,138.674873 91.8770446,137.799682 90.87639,137.799682 L90.8116453,137.799682 C89.8756504,137.799682 89.0465439,138.612323 89.0361779,139.619385 L88.9714332,145.939549 L82.6767489,142.293287 C81.7979367,141.779346 80.7132499,142.0849 80.2552786,142.939185 C79.7758956,143.842053 80.0238289,144.904725 80.9012815,145.418667 L87.2607106,149.127393 L81.7077869,152.481981 C80.8364518,152.905696 80.564388,154.086357 81.0947511,154.954522 C81.4363178,155.517134 81.9336288,155.801867 82.6119192,155.801867 C82.9665708,155.801867 83.2620006,155.711554 83.5478291,155.537955 L90.8115603,151.211008 L102.465784,157.947946 L90.8115603,164.75429 L83.5478291,160.420487 C82.6758992,159.906546 81.5519577,160.149635 81.0946661,161.010861 C80.6152831,161.906788 80.8756215,162.983341 81.707617,163.483316 L87.2606256,166.803116 L80.9011116,170.546631 C80.0257831,171.060573 79.7419938,172.144066 80.2551086,173.026113 C80.6140086,173.637307 81.0947511,173.936007 81.7724467,173.936007 C81.9336288,173.936007 82.2565878,173.838754 82.6767489,173.672096 L88.9714332,170.025834 L89.0361779,176.345998 C89.0465439,177.35306 89.8756504,178.130913 90.8116453,178.130913 L90.87639,178.130913 C91.8770446,178.130913 92.627047,177.29051 92.619485,176.276507 L92.5547403,167.879669 L104.241251,161.142816 L104.241251,174.484652 L96.8480303,178.686498 C95.9658195,179.186559 95.6572199,180.276993 96.1703347,181.159039 C96.5291497,181.777175 97.0098922,182.075789 97.6875028,182.075789 C98.0105468,182.075789 98.3080158,182.020265 98.5594327,181.874342 L104.241251,178.623862 L104.241251,186.208144 C104.241251,187.215206 105.016064,188 106.016718,188 C107.017373,188 107.824558,187.215206 107.824558,186.208144 L107.824558,178.748877 L113.312227,181.874342 C113.563474,182.020179 113.861028,182.075789 114.151785,182.075789 C114.861683,182.075789 115.385164,181.784115 115.733613,181.159039 C116.223956,180.283933 115.9072,179.186473 115.023545,178.686498 L107.824558,174.616607 L107.824558,161.073325 L119.25226,167.747713 L119.188195,176.276507 C119.179868,177.29051 119.963008,178.130913 120.963662,178.130913 C121.964317,178.130913 122.723921,177.35306 122.739045,176.345998 L122.835482,169.796625 L129.292113,173.609545 C129.541406,173.755382 129.873286,173.804051 130.228703,173.804051 C130.906483,173.804051 131.403624,173.519319 131.745786,172.956707 C132.275639,172.088542 131.937386,170.970346 131.100038,170.484166 Z"/>
  </g>
</svg>
