<svg xmlns="http://www.w3.org/2000/svg" width="270" height="270" viewBox="0 0 270 270">
  <g fill="none" fill-rule="evenodd" transform="translate(29 41)">
    <path fill="#DCDCDC" d="M28.4444444,119.810869 C27.4248934,119.93572 26.3866201,120 25.3333333,120 C11.3421197,120 0,108.65788 0,94.6666667 C0,80.675453 11.3421197,69.3333333 25.3333333,69.3333333 C26.9723932,69.3333333 28.5750971,69.4889919 30.1274688,69.7863329 C29.6050258,66.6016404 29.3333333,63.3325488 29.3333333,60 C29.3333333,26.862915 56.1962483,0 89.3333333,0 C116.016548,0 138.631546,17.4181018 146.428504,41.5044801 C149.895109,40.524422 153.552979,40 157.333333,40 C179.424723,40 197.333333,57.90861 197.333333,80 C197.333333,83.7061299 196.829303,87.2945371 195.886049,90.7004132 C196.217432,90.6780364 196.551833,90.6666667 196.888889,90.6666667 C204.989065,90.6666667 211.555556,97.233157 211.555556,105.333333 C211.555556,113.43351 204.989065,120 196.888889,120 C196.439436,120 195.994705,119.979783 195.555556,119.940209 L195.555556,120 L28.4444444,120 L28.4444444,119.810869 Z"/>
    <g transform="translate(43 128)">
      <path fill="#4DC2D9" d="M20.5,60 C31.8218374,60 41,50.9722991 41,39.8360656 C41,28.6998321 20.5,0 20.5,0 C20.5,0 0,28.6998321 0,39.8360656 C0,50.9722991 9.17816263,60 20.5,60 Z"/>
      <path fill="#8C8C8C" fill-rule="nonzero" d="M125.100038,42.484166 L118.675779,38.7406514 L124.099383,35.4833163 C124.971313,35.0596871 125.241168,33.8789406 124.745301,33.0108606 C124.240513,32.1218734 123.150983,31.9343935 122.323916,32.4204874 L115.092642,36.6918249 L103.60011,29.947946 L115.092557,23.2735582 L122.323831,27.5379551 C122.549673,27.7046135 122.840259,27.8018665 123.163388,27.8018665 C123.776254,27.8018665 124.325225,27.510193 124.745216,26.9545224 C125.229442,26.0724757 124.971228,24.9056959 124.099298,24.4820667 L118.675694,21.2247317 L125.099953,17.4813027 C125.937301,16.9951231 126.225254,15.9046891 125.745871,15.0087613 C125.287985,14.1475362 124.155037,13.8489221 123.292113,14.3559234 L116.835482,18.1341407 L116.739045,11.6194706 C116.723921,10.6124087 115.964232,9.79976722 114.963577,9.79976722 C113.963093,9.79976722 113.180633,10.6748734 113.188195,11.6194706 L113.25226,20.2176698 L101.824558,26.8920577 L101.824558,13.3487758 L109.023545,9.20939399 C109.863952,8.73015488 110.230159,7.61195884 109.733613,6.73693831 C109.229419,5.84795105 108.194438,5.58395396 107.312227,6.08410034 L101.824558,9.20947967 L101.824558,1.8196177 C101.824558,0.812555785 101.017373,0 100.016718,0 C99.0160638,0 98.2412511,0.812555785 98.2412511,1.8196177 L98.2412511,9.27879926 L92.5594327,6.08401465 C91.6744179,5.59089449 90.666881,5.86868694 90.1703347,6.73685263 C89.6662264,7.6258399 89.9795841,8.71627382 90.8480303,9.2093083 L98.2412511,13.4112405 L98.2412511,26.8225667 L86.5547403,20.0231637 L86.619485,11.6193849 C86.7166021,10.6748734 85.8770446,9.79968154 84.87639,9.79968154 L84.8116453,9.79968154 C83.8756504,9.79968154 83.0465439,10.612323 83.0361779,11.6193849 L82.9714332,17.9395489 L76.6767489,14.2932873 C75.7979367,13.7793455 74.7132499,14.0849001 74.2552786,14.9391847 C73.7758956,15.842053 74.0238289,16.9047248 74.9012815,17.4186666 L81.2607106,21.1273929 L75.7077869,24.481981 C74.8364518,24.9056959 74.564388,26.0863567 75.0947511,26.9545224 C75.4363178,27.5171335 75.9336288,27.8018665 76.6119192,27.8018665 C76.9665708,27.8018665 77.2620006,27.711554 77.5478291,27.5379551 L84.8115603,23.2110077 L96.4657837,29.947946 L84.8115603,36.7542896 L77.5478291,32.4204874 C76.6758992,31.9065457 75.5519577,32.1496355 75.0946661,33.0108606 C74.6152831,33.9067884 74.8756215,34.9833413 75.707617,35.4833163 L81.2606256,38.8031161 L74.9011116,42.5466308 C74.0257831,43.0605725 73.7419938,44.1440659 74.2551086,45.0261127 C74.6140086,45.6373075 75.0947511,45.9360072 75.7724467,45.9360072 C75.9336288,45.9360072 76.2565878,45.8387541 76.6767489,45.6720958 L82.9714332,42.0258342 L83.0361779,48.3459981 C83.0465439,49.35306 83.8756504,50.1309132 84.8116453,50.1309132 L84.87639,50.1309132 C85.8770446,50.1309132 86.627047,49.2905096 86.619485,48.2765072 L86.5547403,39.879669 L98.2412511,33.1428163 L98.2412511,46.4846516 L90.8480303,50.6864981 C89.9658195,51.1865588 89.6572199,52.2769927 90.1703347,53.1590395 C90.5291497,53.7771748 91.0098922,54.0757888 91.6875028,54.0757888 C92.0105468,54.0757888 92.3080158,54.0202646 92.5594327,53.8743422 L98.2412511,50.623862 L98.2412511,58.2081444 C98.2412511,59.2152063 99.0160638,60 100.016718,60 C101.017373,60 101.824558,59.2152063 101.824558,58.2081444 L101.824558,50.7488772 L107.312227,53.8743422 C107.563474,54.0201789 107.861028,54.0757888 108.151785,54.0757888 C108.861683,54.0757888 109.385164,53.7841153 109.733613,53.1590395 C110.223956,52.2839333 109.9072,51.1864731 109.023545,50.6864981 L101.824558,46.6166073 L101.824558,33.0733254 L113.25226,39.7477133 L113.188195,48.2765072 C113.179868,49.2905096 113.963008,50.1309132 114.963662,50.1309132 C115.964317,50.1309132 116.723921,49.35306 116.739045,48.3459981 L116.835482,41.7966254 L123.292113,45.6095454 C123.541406,45.7553821 123.873286,45.8040515 124.228703,45.8040515 C124.906483,45.8040515 125.403624,45.5193185 125.745786,44.9567074 C126.275639,44.0885417 125.937386,42.9703457 125.100038,42.484166 Z"/>
    </g>
  </g>
</svg>
