<svg xmlns="http://www.w3.org/2000/svg" width="270" height="270" viewBox="0 0 270 270">
  <g fill="none" fill-rule="evenodd" transform="translate(29 41)">
    <path fill="#DCDCDC" d="M28.4444444,119.810869 C27.4248934,119.93572 26.3866201,120 25.3333333,120 C11.3421197,120 0,108.65788 0,94.6666667 C0,80.675453 11.3421197,69.3333333 25.3333333,69.3333333 C26.9723932,69.3333333 28.5750971,69.4889919 30.1274688,69.7863329 C29.6050258,66.6016404 29.3333333,63.3325488 29.3333333,60 C29.3333333,26.862915 56.1962483,0 89.3333333,0 C116.016548,0 138.631546,17.4181018 146.428504,41.5044801 C149.895109,40.524422 153.552979,40 157.333333,40 C179.424723,40 197.333333,57.90861 197.333333,80 C197.333333,83.7061299 196.829303,87.2945371 195.886049,90.7004132 C196.217432,90.6780364 196.551833,90.6666667 196.888889,90.6666667 C204.989065,90.6666667 211.555556,97.233157 211.555556,105.333333 C211.555556,113.43351 204.989065,120 196.888889,120 C196.439436,120 195.994705,119.979783 195.555556,119.940209 L195.555556,120 L28.4444444,120 L28.4444444,119.810869 Z"/>
    <path fill="#4DC2D9" d="M105.5,188 C116.821837,188 126,178.972299 126,167.836066 C126,156.699832 105.5,128 105.5,128 C105.5,128 85,156.699832 85,167.836066 C85,178.972299 94.1781626,188 105.5,188 Z"/>
  </g>
</svg>
