<svg xmlns="http://www.w3.org/2000/svg" width="270" height="270" viewBox="0 0 270 270">
  <g fill="none" fill-rule="evenodd" transform="translate(29 41)">
    <path fill="#DCDCDC" d="M28.4444444,119.810869 C27.4248934,119.93572 26.3866201,120 25.3333333,120 C11.3421197,120 0,108.65788 0,94.6666667 C0,80.675453 11.3421197,69.3333333 25.3333333,69.3333333 C26.9723932,69.3333333 28.5750971,69.4889919 30.1274688,69.7863329 C29.6050258,66.6016404 29.3333333,63.3325488 29.3333333,60 C29.3333333,26.862915 56.1962483,0 89.3333333,0 C116.016548,0 138.631546,17.4181018 146.428504,41.5044801 C149.895109,40.524422 153.552979,40 157.333333,40 C179.424723,40 197.333333,57.90861 197.333333,80 C197.333333,83.7061299 196.829303,87.2945371 195.886049,90.7004132 C196.217432,90.6780364 196.551833,90.6666667 196.888889,90.6666667 C204.989065,90.6666667 211.555556,97.233157 211.555556,105.333333 C211.555556,113.43351 204.989065,120 196.888889,120 C196.439436,120 195.994705,119.979783 195.555556,119.940209 L195.555556,120 L28.4444444,120 L28.4444444,119.810869 Z"/>
    <g fill="#8C8C8C" fill-rule="nonzero" transform="translate(43 128)">
      <path d="M125.100038 42.484166L118.675779 38.7406514 124.099383 35.4833163C124.971313 35.0596871 125.241168 33.8789406 124.745301 33.0108606 124.240513 32.1218734 123.150983 31.9343935 122.323916 32.4204874L115.092642 36.6918249 103.60011 29.947946 115.092557 23.2735582 122.323831 27.5379551C122.549673 27.7046135 122.840259 27.8018665 123.163388 27.8018665 123.776254 27.8018665 124.325225 27.510193 124.745216 26.9545224 125.229442 26.0724757 124.971228 24.9056959 124.099298 24.4820667L118.675694 21.2247317 125.099953 17.4813027C125.937301 16.9951231 126.225254 15.9046891 125.745871 15.0087613 125.287985 14.1475362 124.155037 13.8489221 123.292113 14.3559234L116.835482 18.1341407 116.739045 11.6194706C116.723921 10.6124087 115.964232 9.79976722 114.963577 9.79976722 113.963093 9.79976722 113.180633 10.6748734 113.188195 11.6194706L113.25226 20.2176698 101.824558 26.8920577 101.824558 13.3487758 109.023545 9.20939399C109.863952 8.73015488 110.230159 7.61195884 109.733613 6.73693831 109.229419 5.84795105 108.194438 5.58395396 107.312227 6.08410034L101.824558 9.20947967 101.824558 1.8196177C101.824558.812555785 101.017373 0 100.016718 0 99.0160638 0 98.2412511.812555785 98.2412511 1.8196177L98.2412511 9.27879926 92.5594327 6.08401465C91.6744179 5.59089449 90.666881 5.86868694 90.1703347 6.73685263 89.6662264 7.6258399 89.9795841 8.71627382 90.8480303 9.2093083L98.2412511 13.4112405 98.2412511 26.8225667 86.5547403 20.0231637 86.619485 11.6193849C86.7166021 10.6748734 85.8770446 9.79968154 84.87639 9.79968154L84.8116453 9.79968154C83.8756504 9.79968154 83.0465439 10.612323 83.0361779 11.6193849L82.9714332 17.9395489 76.6767489 14.2932873C75.7979367 13.7793455 74.7132499 14.0849001 74.2552786 14.9391847 73.7758956 15.842053 74.0238289 16.9047248 74.9012815 17.4186666L81.2607106 21.1273929 75.7077869 24.481981C74.8364518 24.9056959 74.564388 26.0863567 75.0947511 26.9545224 75.4363178 27.5171335 75.9336288 27.8018665 76.6119192 27.8018665 76.9665708 27.8018665 77.2620006 27.711554 77.5478291 27.5379551L84.8115603 23.2110077 96.4657837 29.947946 84.8115603 36.7542896 77.5478291 32.4204874C76.6758992 31.9065457 75.5519577 32.1496355 75.0946661 33.0108606 74.6152831 33.9067884 74.8756215 34.9833413 75.707617 35.4833163L81.2606256 38.8031161 74.9011116 42.5466308C74.0257831 43.0605725 73.7419938 44.1440659 74.2551086 45.0261127 74.6140086 45.6373075 75.0947511 45.9360072 75.7724467 45.9360072 75.9336288 45.9360072 76.2565878 45.8387541 76.6767489 45.6720958L82.9714332 42.0258342 83.0361779 48.3459981C83.0465439 49.35306 83.8756504 50.1309132 84.8116453 50.1309132L84.87639 50.1309132C85.8770446 50.1309132 86.627047 49.2905096 86.619485 48.2765072L86.5547403 39.879669 98.2412511 33.1428163 98.2412511 46.4846516 90.8480303 50.6864981C89.9658195 51.1865588 89.6572199 52.2769927 90.1703347 53.1590395 90.5291497 53.7771748 91.0098922 54.0757888 91.6875028 54.0757888 92.0105468 54.0757888 92.3080158 54.0202646 92.5594327 53.8743422L98.2412511 50.623862 98.2412511 58.2081444C98.2412511 59.2152063 99.0160638 60 100.016718 60 101.017373 60 101.824558 59.2152063 101.824558 58.2081444L101.824558 50.7488772 107.312227 53.8743422C107.563474 54.0201789 107.861028 54.0757888 108.151785 54.0757888 108.861683 54.0757888 109.385164 53.7841153 109.733613 53.1590395 110.223956 52.2839333 109.9072 51.1864731 109.023545 50.6864981L101.824558 46.6166073 101.824558 33.0733254 113.25226 39.7477133 113.188195 48.2765072C113.179868 49.2905096 113.963008 50.1309132 114.963662 50.1309132 115.964317 50.1309132 116.723921 49.35306 116.739045 48.3459981L116.835482 41.7966254 123.292113 45.6095454C123.541406 45.7553821 123.873286 45.8040515 124.228703 45.8040515 124.906483 45.8040515 125.403624 45.5193185 125.745786 44.9567074 126.275639 44.0885417 125.937386 42.9703457 125.100038 42.484166zM51.1000378 42.484166L44.6757791 38.7406514 50.0993832 35.4833163C50.9713131 35.0596871 51.2411678 33.8789406 50.7453012 33.0108606 50.2405132 32.1218734 49.1509832 31.9343935 48.3239159 32.4204874L41.092642 36.6918249 29.6001105 29.947946 41.092557 23.2735582 48.3238309 27.5379551C48.5496728 27.7046135 48.8402594 27.8018665 49.1633884 27.8018665 49.7762543 27.8018665 50.3252251 27.510193 50.7452163 26.9545224 51.2294424 26.0724757 50.9712281 24.9056959 50.0992982 24.4820667L44.6756941 21.2247317 51.0999529 17.4813027C51.9373012 16.9951231 52.2252539 15.9046891 51.7458709 15.0087613 51.2879845 14.1475362 50.1550365 13.8489221 49.2921131 14.3559234L42.835482 18.1341407 42.7390447 11.6194706C42.7239206 10.6124087 41.9642319 9.79976722 40.9635773 9.79976722 39.9630926 9.79976722 39.1806329 10.6748734 39.1881949 11.6194706L39.2522599 20.2176698 27.8245581 26.8920577 27.8245581 13.3487758 35.0235446 9.20939399C35.8639518 8.73015488 36.2301589 7.61195884 35.7336126 6.73693831 35.2294193 5.84795105 34.1944381 5.58395396 33.3122273 6.08410034L27.8245581 9.20947967 27.8245581 1.8196177C27.8245581.812555785 27.017373 0 26.0167184 0 25.0160638 0 24.2412511.812555785 24.2412511 1.8196177L24.2412511 9.27879926 18.5594327 6.08401465C17.6744179 5.59089449 16.666881 5.86868694 16.1703347 6.73685263 15.6662264 7.6258399 15.9795841 8.71627382 16.8480303 9.2093083L24.2412511 13.4112405 24.2412511 26.8225667 12.5547403 20.0231637 12.619485 11.6193849C12.7166021 10.6748734 11.8770446 9.79968154 10.87639 9.79968154L10.8116453 9.79968154C9.87565043 9.79968154 9.04654388 10.612323 9.03617793 11.6193849L8.97143319 17.9395489 2.67674889 14.2932873C1.79793673 13.7793455.713249895 14.0849001.25527856 14.9391847-.224104422 15.842053.0238288539 16.9047248.901281539 17.4186666L7.26071058 21.1273929 1.7077869 24.481981C.836451831 24.9056959.564387969 26.0863567 1.09475106 26.9545224 1.43631781 27.5171335 1.9336288 27.8018665 2.61191918 27.8018665 2.96657082 27.8018665 3.26200057 27.711554 3.54782906 27.5379551L10.8115603 23.2110077 22.4657837 29.947946 10.8115603 36.7542896 3.54782906 32.4204874C2.67589922 31.9065457 1.5519577 32.1496355 1.0946661 33.0108606.615283114 33.9067884.87562155 34.9833413 1.70761697 35.4833163L7.26062561 38.8031161.901111606 42.5466308C.0257830915 43.0605725-.258006196 44.1440659.255108626 45.0261127.614008611 45.6373075 1.09475106 45.9360072 1.77244668 45.9360072 1.9336288 45.9360072 2.2565878 45.8387541 2.67674889 45.6720958L8.97143319 42.0258342 9.03617793 48.3459981C9.04654388 49.35306 9.87565043 50.1309132 10.8116453 50.1309132L10.87639 50.1309132C11.8770446 50.1309132 12.627047 49.2905096 12.619485 48.2765072L12.5547403 39.879669 24.2412511 33.1428163 24.2412511 46.4846516 16.8480303 50.6864981C15.9658195 51.1865588 15.6572199 52.2769927 16.1703347 53.1590395 16.5291497 53.7771748 17.0098922 54.0757888 17.6875028 54.0757888 18.0105468 54.0757888 18.3080158 54.0202646 18.5594327 53.8743422L24.2412511 50.623862 24.2412511 58.2081444C24.2412511 59.2152063 25.0160638 60 26.0167184 60 27.017373 60 27.8245581 59.2152063 27.8245581 58.2081444L27.8245581 50.7488772 33.3122273 53.8743422C33.5634743 54.0201789 33.8610282 54.0757888 34.1517847 54.0757888 34.8616828 54.0757888 35.3851636 53.7841153 35.7336126 53.1590395 36.2239563 52.2839333 35.9071999 51.1864731 35.0235446 50.6864981L27.8245581 46.6166073 27.8245581 33.0733254 39.2522599 39.7477133 39.1881949 48.2765072C39.1798682 49.2905096 39.9630076 50.1309132 40.9636623 50.1309132 41.9643169 50.1309132 42.7239206 49.35306 42.7390447 48.3459981L42.835482 41.7966254 49.2921131 45.6095454C49.5414059 45.7553821 49.8732864 45.8040515 50.2287028 45.8040515 50.9064833 45.8040515 51.4036244 45.5193185 51.7457859 44.9567074 52.2756392 44.0885417 51.9373862 42.9703457 51.1000378 42.484166z"/>
    </g>
  </g>
</svg>
