<svg xmlns="http://www.w3.org/2000/svg" width="270" height="270" viewBox="0 0 270 270">
  <g fill="none" fill-rule="evenodd">
    <g fill="#DDDDDD" fill-rule="nonzero" transform="translate(72 185)">
      <path d="M10.0857229 13.7990817C10.2366014 12.8256201 11.3455588 11.5199382 13.1301169 10.2179682 15.4494557 8.52531437 16.0890131 5.07226349 14.5609486 2.50451509 13.0328841-.0632333085 9.91388894-.773145678 7.59287375.920436118 3.31462834 4.04312255.816749948 7.74487476.171324994 11.9199019-.861354932 18.605142 2.97263694 24.2009219 6.35483134 29.1387568 8.39672119 32.1176048 10.9356721 35.8249249 10.638106 37.7495762 10.4872275 38.7230378 9.37743183 40.0287197 7.59371196 41.3306898 5.2743732 43.0233436 4.63397753 46.4763944 6.16204206 49.0441428 7.12850307 50.6671974 8.73116867 51.5478599 10.3665246 51.5478599 11.3162213 51.5478599 12.2768148 51.2499751 13.1292787 50.6282218 17.4092005 47.5046074 19.9070789 43.8037832 20.5525039 39.6278281 21.586022 32.9425879 17.7511919 27.3458801 14.3689975 22.4080451 12.3279459 19.4310531 9.7881568 15.724661 10.0857229 13.7990817zM43.5207229 13.7990817C43.6716014 12.8256201 44.7805588 11.5199382 46.5651169 10.2179682 48.8844557 8.52531437 49.5240131 5.07226349 47.9959486 2.50451509 46.4678841-.0632333085 43.3488889-.773145678 41.0278737.920436118 36.7496283 4.04312255 34.2517499 7.74487476 33.606325 11.9199019 32.5736451 18.605142 36.4076369 24.2009219 39.7898313 29.1387568 41.8317212 32.1176048 44.3706721 35.8249249 44.073106 37.7495762 43.9222275 38.7230378 42.8124318 40.0287197 41.028712 41.3306898 38.7093732 43.0233436 38.0689775 46.4763944 39.5970421 49.0441428 40.5635031 50.6671974 42.1661687 51.5478599 43.8015246 51.5478599 44.7512213 51.5478599 45.7118148 51.2499751 46.5642787 50.6282218 50.8442005 47.5046074 53.3420789 43.8037832 53.9875039 39.6278281 55.021022 32.9425879 51.1861919 27.3458801 47.8039975 22.4080451 45.7629459 19.4310531 43.223995 15.724661 43.5207229 13.7990817zM76.9547229 13.7990817C77.1056014 12.8256201 78.2145588 11.5199382 79.9991169 10.2179682 82.3184557 8.52531437 82.9580131 5.07226349 81.4299486 2.50451509 79.9018841-.0632333085 76.7837272-.773145678 74.4618737.920436118 70.1836283 4.04312255 67.6857499 7.74487476 67.040325 11.9199019 66.0076451 18.605142 69.8416369 24.2009219 73.2238313 29.1387568 75.2657212 32.1176048 77.8046721 35.8249249 77.507106 37.7495762 77.3562275 38.7230378 76.2464318 40.0287197 74.462712 41.3306898 72.1433732 43.0233436 71.5029775 46.4763944 73.0310421 49.0441428 73.9975031 50.6671974 75.6001687 51.5478599 77.2355246 51.5478599 78.1852213 51.5478599 79.1458148 51.2499751 79.9982787 50.6282218 84.2782005 47.5046074 86.7760789 43.8037832 87.4215039 39.6278281 88.455022 32.9425879 84.6201919 27.3458801 81.2379975 22.4080451 79.1969459 19.4310531 76.657995 15.724661 76.9547229 13.7990817zM110.390723 13.7990817C110.541601 12.8256201 111.650559 11.5199382 113.435117 10.2179682 115.754456 8.52531437 116.394013 5.07226349 114.865949 2.50451509 113.337884-.0632333085 110.218889-.773145678 107.897874.920436118 103.619628 4.04312255 101.12175 7.74487476 100.476325 11.9199019 99.4436451 18.605142 103.277637 24.2009219 106.659831 29.1387568 108.701721 32.1176048 111.240672 35.8249249 110.943106 37.7495762 110.792227 38.7230378 109.682432 40.0287197 107.898712 41.3306898 105.579373 43.0233436 104.938978 46.4763944 106.467042 49.0441428 107.433503 50.6671974 109.036169 51.5478599 110.671525 51.5478599 111.621221 51.5478599 112.581815 51.2499751 113.434279 50.6282218 117.714201 47.5046074 120.212079 43.8037832 120.857504 39.6278281 121.891022 32.9425879 118.056192 27.3458801 114.673998 22.4080451 112.632108 19.4310531 110.093157 15.724661 110.390723 13.7990817z"/>
    </g>
    <path fill="#DCDCDC" d="M200.212775,174.213578 C200.952184,174.25954 201.697711,174.282863 202.448674,174.282863 C222.09154,174.282863 238.015228,158.325651 238.015228,138.641432 C238.015228,120.40463 224.347238,105.366879 206.716624,103.253976 C204.282029,68.4656391 175.289546,41 139.882119,41 C102.879041,41 72.8821193,70.9969218 72.8821193,108 C72.8821193,109.483083 72.9303065,110.954912 73.0252007,112.414005 C70.0578369,111.494901 66.9045777,111 63.6359711,111 C46.098803,111 31.8821193,125.246614 31.8821193,142.820702 C31.8821193,159.122037 44.1141634,172.560411 59.8821193,174.421383 L59.8821193,174.529809 L60.9576147,174.529809 C61.8406262,174.60371 62.733906,174.641404 63.6359711,174.641404 C64.5380362,174.641404 65.431316,174.60371 66.3143275,174.529809 L131.902986,174.529809 C134.519441,174.840293 137.182129,175 139.882119,175 C142.582109,175 145.244797,174.840293 147.861252,174.529809 L200.212775,174.529809 L200.212775,174.213578 Z" transform="matrix(-1 0 0 1 269.897 0)"/>
  </g>
</svg>
