<svg xmlns="http://www.w3.org/2000/svg" width="270" height="270" viewBox="0 0 270 270">
  <path fill="#CCCCCC" fill-rule="evenodd" d="M57.4444444,194.810869 C56.4248934,194.93572 55.3866201,195 54.3333333,195 C40.3421197,195 29,183.65788 29,169.666667 C29,155.675453 40.3421197,144.333333 54.3333333,144.333333 C55.9723932,144.333333 57.5750971,144.488992 59.1274688,144.786333 C58.6050258,141.60164 58.3333333,138.332549 58.3333333,135 C58.3333333,101.862915 85.1962483,75 118.333333,75 C145.016548,75 167.631546,92.4181018 175.428504,116.50448 C178.895109,115.524422 182.552979,115 186.333333,115 C208.424723,115 226.333333,132.90861 226.333333,155 C226.333333,158.70613 225.829303,162.294537 224.886049,165.700413 C225.217432,165.678036 225.551833,165.666667 225.888889,165.666667 C233.989065,165.666667 240.555556,172.233157 240.555556,180.333333 C240.555556,188.43351 233.989065,195 225.888889,195 C225.439436,195 224.994705,194.979783 224.555556,194.940209 L224.555556,195 L57.4444444,195 L57.4444444,194.810869 Z"/>
</svg>
