<svg xmlns="http://www.w3.org/2000/svg" width="270" height="270" viewBox="0 0 270 270">
  <g fill="#F8E81C" fill-rule="evenodd">
    <ellipse cx="135.512" cy="135.512" rx="48.512" ry="48.512"/>
    <path d="M133.552337,49 L138.403524,49 L144.467508,78.1071214 L127.488353,78.1071214 L133.552337,49 Z M174.485626,57.8998956 L178.76897,60.1773899 L170.458184,88.7243206 L155.46648,80.7530905 L174.485626,57.8998956 Z M206.394975,84.6500311 L209.177501,88.6238907 L188.812501,110.286374 L179.073658,96.3778655 L206.394975,84.6500311 Z M222.36465,123.369028 L222.955861,128.184055 L194.804713,137.750105 L192.735475,120.897511 L222.36465,123.369028 Z M218.473183,165.076226 L216.734673,169.605199 L187.387697,164.835356 L193.472482,148.98395 L218.473183,165.076226 Z M195.77271,199.981212 L192.167576,203.22729 L168.184692,185.65408 L180.802662,174.292808 L195.77271,199.981212 Z M159.266774,220.509121 L154.559688,221.68273 L141.63418,194.907225 L158.108981,190.799595 L159.266774,220.509121 Z M117.396173,221.68273 L112.689087,220.509121 L113.84688,190.799595 L130.321681,194.907225 L117.396173,221.68273 Z M79.7882855,203.22729 L76.1831511,199.981212 L91.1531988,174.292808 L103.771169,185.65408 L79.7882855,203.22729 Z M55.2211878,169.605199 L53.4826779,165.076226 L78.4833793,148.98395 L84.568164,164.835356 L55.2211878,169.605199 Z M49,128.184055 L49.591211,123.369028 L79.220386,120.897511 L77.1511477,137.750105 L49,128.184055 Z M62.77836,88.6238907 L65.5608865,84.6500311 L92.8822026,96.3778655 L83.1433599,110.286374 L62.77836,88.6238907 Z M93.1868912,60.1773899 L97.470235,57.8998956 L116.489381,80.7530905 L101.497677,88.7243206 L93.1868912,60.1773899 Z"/>
  </g>
</svg>
