<svg xmlns="http://www.w3.org/2000/svg" width="270" height="270" viewBox="0 0 270 270">
  <g fill="none" fill-rule="evenodd" transform="translate(29 35)">
    <path fill="#DCDCDC" d="M28.4444444,119.810869 C27.4248934,119.93572 26.3866201,120 25.3333333,120 C11.3421197,120 0,108.65788 0,94.6666667 C0,80.675453 11.3421197,69.3333333 25.3333333,69.3333333 C26.9723932,69.3333333 28.5750971,69.4889919 30.1274688,69.7863329 C29.6050258,66.6016404 29.3333333,63.3325488 29.3333333,60 C29.3333333,26.862915 56.1962483,0 89.3333333,0 C116.016548,0 138.631546,17.4181018 146.428504,41.5044801 C149.895109,40.524422 153.552979,40 157.333333,40 C179.424723,40 197.333333,57.90861 197.333333,80 C197.333333,83.7061299 196.829303,87.2945371 195.886049,90.7004132 C196.217432,90.6780364 196.551833,90.6666667 196.888889,90.6666667 C204.989065,90.6666667 211.555556,97.233157 211.555556,105.333333 C211.555556,113.43351 204.989065,120 196.888889,120 C196.439436,120 195.994705,119.979783 195.555556,119.940209 L195.555556,120 L28.4444444,120 L28.4444444,119.810869 Z"/>
    <path fill="#F8E81C" fill-rule="nonzero" d="M152.185287,142.995682 C151.629751,141.749444 150.392976,140.946892 149.028468,140.946892 L123.025767,140.946892 L133.721511,112.679134 C134.123294,111.6174 133.977989,110.425905 133.332568,109.491565 C132.687485,108.557563 131.624737,108 130.489336,108 L104.764065,108 C103.327243,108 102.040117,108.889059 101.531552,110.232954 L85.2236857,153.33222 C84.8219026,154.393955 84.9672069,155.585449 85.612628,156.519789 C86.2580492,157.453792 87.3207977,158.011692 88.4561982,158.011692 L117.313958,157.838341 L102.066813,198.390051 C101.865414,198.925987 102.073909,199.529507 102.563213,199.826874 C103.052516,200.124241 103.684421,200.030976 104.06728,199.6052 L151.599339,146.713443 C152.511039,145.698341 152.740822,144.241919 152.185287,142.995682 Z"/>
  </g>
</svg>
