<svg xmlns="http://www.w3.org/2000/svg" width="270" height="270" viewBox="0 0 270 270">
  <g fill="none" fill-rule="evenodd">
    <g fill="#F8E81C" transform="rotate(-6 504.785 -114.393)">
      <ellipse cx="74.435" cy="74.36" rx="41.263" ry="41.221"/>
      <path d="M71.9180798,0 L76.0443767,0 L81.2022478,24.7326408 L66.7602087,24.7326408 L71.9180798,0 Z M106.728999,7.56135546 L110.372303,9.49853452 L103.315161,33.757634 L90.5635975,26.9775073 L106.728999,7.56135546 Z M133.865888,30.2905067 L136.232635,33.6705713 L118.931275,52.0817119 L110.647662,40.251486 L133.865888,30.2905067 Z M147.447111,63.1901008 L147.94998,67.2856409 L124.030279,75.4192168 L122.270237,61.0848264 L147.447111,63.1901008 Z M144.137869,98.6292883 L142.659136,102.481518 L117.720811,98.4334201 L122.896375,84.950615 L144.137869,98.6292883 Z M124.832744,128.288992 L121.766308,131.050024 L101.383896,116.121379 L112.116423,106.457769 L124.832744,128.288992 Z M93.7870883,145.732677 L89.7833601,146.730919 L78.7953324,123.980745 L92.8083813,120.4869 L93.7870883,145.732677 Z M58.1790964,146.730919 L54.1753682,145.732677 L55.1540752,120.4869 L69.1671241,123.980745 L58.1790964,146.730919 Z M26.1961483,131.050024 L23.1297121,128.288992 L35.8460338,106.457769 L46.5785604,116.121379 L26.1961483,131.050024 Z M5.30332043,102.481518 L3.82458786,98.6292883 L25.0660815,84.950615 L30.2416454,98.4334201 L5.30332043,102.481518 Z M0.0124766493,67.2856409 L0.515345744,63.1901008 L25.6922195,61.0848264 L23.9321777,75.4192168 L0.0124766493,67.2856409 Z M11.7298216,33.6705713 L14.0965683,30.2905067 L37.3147948,40.251486 L29.0311815,52.0817119 L11.7298216,33.6705713 Z M37.5901537,9.49853452 L41.2334577,7.56135546 L57.3988591,26.9775073 L44.6472953,33.757634 L37.5901537,9.49853452 Z"/>
    </g>
    <path fill="#DDDDDD" d="M219.126384,198.930847 C219.846639,198.976716 220.573019,199 221.304825,199 C239.989573,199 255.136555,183.82113 255.136555,165.097046 C255.136555,147.442569 241.670678,132.939837 224.470108,131.340519 C218.770362,107.048118 197.004547,88.9638761 171.023804,88.9638761 C140.702003,88.9638761 116.121326,113.596302 116.121326,143.981938 C116.121326,145.724787 116.202194,147.448708 116.360375,149.150139 C113.91252,148.366068 111.303726,147.942821 108.596284,147.942821 C97.4243042,147.942821 87.9320011,155.149513 84.4961373,165.17692 C76.3554065,166.430909 70.1213262,173.480551 70.1213262,181.989305 C70.1213262,190.892667 76.9470455,198.19844 85.6406262,198.93833 L85.6406262,199 L219.126393,199 L219.126393,198.930848 Z"/>
  </g>
</svg>
