<svg xmlns="http://www.w3.org/2000/svg" width="270" height="270" viewBox="0 0 270 270">
  <g fill="none" fill-rule="evenodd" transform="translate(8 26)">
    <g fill="#F8E81C" transform="rotate(-6 151.825 -1.308)">
      <ellipse cx="71.921" cy="71.848" rx="39.869" ry="39.828"/>
      <path d="M69.4884149,0 L73.4753099,0 L78.4589287,23.8970786 L64.5047962,23.8970786 L69.4884149,0 Z M103.123289,7.30590426 L106.643509,9.17763808 L99.8247841,32.6171734 L87.5040165,26.066105 L103.123289,7.30590426 Z M129.343392,29.2671788 L131.630181,32.533052 L114.913327,50.3221946 L106.909565,38.8916385 L129.343392,29.2671788 Z M142.465789,61.0553001 L142.95167,65.0124774 L119.840067,72.8712703 L118.139486,59.0211498 L142.465789,61.0553001 Z M139.268346,95.2972178 L137.839571,99.0193049 L113.743757,95.1079667 L118.74447,82.0806618 L139.268346,95.2972178 Z M120.615422,123.954904 L117.652582,126.622658 L97.9587645,112.19836 L108.328706,102.861222 L120.615422,123.954904 Z M90.6186056,140.809276 L86.7501385,141.773793 L76.133328,119.792206 L89.672963,116.416396 L90.6186056,140.809276 Z M56.2135864,141.773793 L52.3451193,140.809276 L53.2907618,116.416396 L66.8303969,119.792206 L56.2135864,141.773793 Z M25.3111433,126.622658 L22.3483029,123.954904 L34.6350191,102.861222 L45.0049604,112.19836 L25.3111433,126.622658 Z M5.12415419,99.0193049 L3.69537881,95.2972178 L24.2192544,82.0806618 L29.2199682,95.1079667 L5.12415419,99.0193049 Z M0.0120551409,65.0124774 L0.497935415,61.0553001 L24.8242391,59.0211498 L23.1236582,72.8712703 L0.0120551409,65.0124774 Z M11.3335438,32.533052 L13.6203329,29.2671788 L36.0541599,38.8916385 L28.0503983,50.3221946 L11.3335438,32.533052 Z M36.3202161,9.17763808 L39.8404354,7.30590426 L55.4597084,26.066105 L43.1389408,32.6171734 L36.3202161,9.17763808 Z"/>
    </g>
    <path fill="#DCDCDC" d="M205.005058,152.966971 C205.725313,153.01284 206.451692,153.036124 207.183499,153.036124 C225.868247,153.036124 241.015228,137.857254 241.015228,119.13317 C241.015228,101.478692 227.549352,86.9759605 210.348782,85.3766431 C204.649036,61.0842419 182.88322,43 156.902478,43 C126.580677,43 102,67.6324254 102,98.0180619 C102,99.7609106 102.080868,101.484832 102.239049,103.186263 C99.7911942,102.402192 97.1823996,101.978945 94.4749581,101.978945 C83.302978,101.978945 73.8106749,109.185637 70.3748111,119.213044 C62.2340803,120.467033 56,127.516674 56,136.025429 C56,144.928791 62.8257193,152.234564 71.5193,152.974453 L71.5193,153.036124 L205.005067,153.036124 L205.005067,152.966971 Z"/>
    <path fill="#8C8C8C" fill-rule="nonzero" d="M212.100038 200.484166L205.675779 196.740651 211.099383 193.483316C211.971313 193.059687 212.241168 191.878941 211.745301 191.010861 211.240513 190.121873 210.150983 189.934393 209.323916 190.420487L202.092642 194.691825 190.60011 187.947946 202.092557 181.273558 209.323831 185.537955C209.549673 185.704613 209.840259 185.801867 210.163388 185.801867 210.776254 185.801867 211.325225 185.510193 211.745216 184.954522 212.229442 184.072476 211.971228 182.905696 211.099298 182.482067L205.675694 179.224732 212.099953 175.481303C212.937301 174.995123 213.225254 173.904689 212.745871 173.008761 212.287985 172.147536 211.155037 171.848922 210.292113 172.355923L203.835482 176.134141 203.739045 169.619471C203.723921 168.612409 202.964232 167.799767 201.963577 167.799767 200.963093 167.799767 200.180633 168.674873 200.188195 169.619471L200.25226 178.21767 188.824558 184.892058 188.824558 171.348776 196.023545 167.209394C196.863952 166.730155 197.230159 165.611959 196.733613 164.736938 196.229419 163.847951 195.194438 163.583954 194.312227 164.0841L188.824558 167.20948 188.824558 159.819618C188.824558 158.812556 188.017373 158 187.016718 158 186.016064 158 185.241251 158.812556 185.241251 159.819618L185.241251 167.278799 179.559433 164.084015C178.674418 163.590894 177.666881 163.868687 177.170335 164.736853 176.666226 165.62584 176.979584 166.716274 177.84803 167.209308L185.241251 171.411241 185.241251 184.822567 173.55474 178.023164 173.619485 169.619385C173.716602 168.674873 172.877045 167.799682 171.87639 167.799682L171.811645 167.799682C170.87565 167.799682 170.046544 168.612323 170.036178 169.619385L169.971433 175.939549 163.676749 172.293287C162.797937 171.779346 161.71325 172.0849 161.255279 172.939185 160.775896 173.842053 161.023829 174.904725 161.901282 175.418667L168.260711 179.127393 162.707787 182.481981C161.836452 182.905696 161.564388 184.086357 162.094751 184.954522 162.436318 185.517134 162.933629 185.801867 163.611919 185.801867 163.966571 185.801867 164.262001 185.711554 164.547829 185.537955L171.81156 181.211008 183.465784 187.947946 171.81156 194.75429 164.547829 190.420487C163.675899 189.906546 162.551958 190.149635 162.094666 191.010861 161.615283 191.906788 161.875622 192.983341 162.707617 193.483316L168.260626 196.803116 161.901112 200.546631C161.025783 201.060573 160.741994 202.144066 161.255109 203.026113 161.614009 203.637307 162.094751 203.936007 162.772447 203.936007 162.933629 203.936007 163.256588 203.838754 163.676749 203.672096L169.971433 200.025834 170.036178 206.345998C170.046544 207.35306 170.87565 208.130913 171.811645 208.130913L171.87639 208.130913C172.877045 208.130913 173.627047 207.29051 173.619485 206.276507L173.55474 197.879669 185.241251 191.142816 185.241251 204.484652 177.84803 208.686498C176.96582 209.186559 176.65722 210.276993 177.170335 211.159039 177.52915 211.777175 178.009892 212.075789 178.687503 212.075789 179.010547 212.075789 179.308016 212.020265 179.559433 211.874342L185.241251 208.623862 185.241251 216.208144C185.241251 217.215206 186.016064 218 187.016718 218 188.017373 218 188.824558 217.215206 188.824558 216.208144L188.824558 208.748877 194.312227 211.874342C194.563474 212.020179 194.861028 212.075789 195.151785 212.075789 195.861683 212.075789 196.385164 211.784115 196.733613 211.159039 197.223956 210.283933 196.9072 209.186473 196.023545 208.686498L188.824558 204.616607 188.824558 191.073325 200.25226 197.747713 200.188195 206.276507C200.179868 207.29051 200.963008 208.130913 201.963662 208.130913 202.964317 208.130913 203.723921 207.35306 203.739045 206.345998L203.835482 199.796625 210.292113 203.609545C210.541406 203.755382 210.873286 203.804051 211.228703 203.804051 211.906483 203.804051 212.403624 203.519319 212.745786 202.956707 213.275639 202.088542 212.937386 200.970346 212.100038 200.484166zM138.100038 200.484166L131.675779 196.740651 137.099383 193.483316C137.971313 193.059687 138.241168 191.878941 137.745301 191.010861 137.240513 190.121873 136.150983 189.934393 135.323916 190.420487L128.092642 194.691825 116.60011 187.947946 128.092557 181.273558 135.323831 185.537955C135.549673 185.704613 135.840259 185.801867 136.163388 185.801867 136.776254 185.801867 137.325225 185.510193 137.745216 184.954522 138.229442 184.072476 137.971228 182.905696 137.099298 182.482067L131.675694 179.224732 138.099953 175.481303C138.937301 174.995123 139.225254 173.904689 138.745871 173.008761 138.287985 172.147536 137.155037 171.848922 136.292113 172.355923L129.835482 176.134141 129.739045 169.619471C129.723921 168.612409 128.964232 167.799767 127.963577 167.799767 126.963093 167.799767 126.180633 168.674873 126.188195 169.619471L126.25226 178.21767 114.824558 184.892058 114.824558 171.348776 122.023545 167.209394C122.863952 166.730155 123.230159 165.611959 122.733613 164.736938 122.229419 163.847951 121.194438 163.583954 120.312227 164.0841L114.824558 167.20948 114.824558 159.819618C114.824558 158.812556 114.017373 158 113.016718 158 112.016064 158 111.241251 158.812556 111.241251 159.819618L111.241251 167.278799 105.559433 164.084015C104.674418 163.590894 103.666881 163.868687 103.170335 164.736853 102.666226 165.62584 102.979584 166.716274 103.84803 167.209308L111.241251 171.411241 111.241251 184.822567 99.5547403 178.023164 99.619485 169.619385C99.7166021 168.674873 98.8770446 167.799682 97.87639 167.799682L97.8116453 167.799682C96.8756504 167.799682 96.0465439 168.612323 96.0361779 169.619385L95.9714332 175.939549 89.6767489 172.293287C88.7979367 171.779346 87.7132499 172.0849 87.2552786 172.939185 86.7758956 173.842053 87.0238289 174.904725 87.9012815 175.418667L94.2607106 179.127393 88.7077869 182.481981C87.8364518 182.905696 87.564388 184.086357 88.0947511 184.954522 88.4363178 185.517134 88.9336288 185.801867 89.6119192 185.801867 89.9665708 185.801867 90.2620006 185.711554 90.5478291 185.537955L97.8115603 181.211008 109.465784 187.947946 97.8115603 194.75429 90.5478291 190.420487C89.6758992 189.906546 88.5519577 190.149635 88.0946661 191.010861 87.6152831 191.906788 87.8756215 192.983341 88.707617 193.483316L94.2606256 196.803116 87.9011116 200.546631C87.0257831 201.060573 86.7419938 202.144066 87.2551086 203.026113 87.6140086 203.637307 88.0947511 203.936007 88.7724467 203.936007 88.9336288 203.936007 89.2565878 203.838754 89.6767489 203.672096L95.9714332 200.025834 96.0361779 206.345998C96.0465439 207.35306 96.8756504 208.130913 97.8116453 208.130913L97.87639 208.130913C98.8770446 208.130913 99.627047 207.29051 99.619485 206.276507L99.5547403 197.879669 111.241251 191.142816 111.241251 204.484652 103.84803 208.686498C102.96582 209.186559 102.65722 210.276993 103.170335 211.159039 103.52915 211.777175 104.009892 212.075789 104.687503 212.075789 105.010547 212.075789 105.308016 212.020265 105.559433 211.874342L111.241251 208.623862 111.241251 216.208144C111.241251 217.215206 112.016064 218 113.016718 218 114.017373 218 114.824558 217.215206 114.824558 216.208144L114.824558 208.748877 120.312227 211.874342C120.563474 212.020179 120.861028 212.075789 121.151785 212.075789 121.861683 212.075789 122.385164 211.784115 122.733613 211.159039 123.223956 210.283933 122.9072 209.186473 122.023545 208.686498L114.824558 204.616607 114.824558 191.073325 126.25226 197.747713 126.188195 206.276507C126.179868 207.29051 126.963008 208.130913 127.963662 208.130913 128.964317 208.130913 129.723921 207.35306 129.739045 206.345998L129.835482 199.796625 136.292113 203.609545C136.541406 203.755382 136.873286 203.804051 137.228703 203.804051 137.906483 203.804051 138.403624 203.519319 138.745786 202.956707 139.275639 202.088542 138.937386 200.970346 138.100038 200.484166z"/>
  </g>
</svg>
