<svg xmlns="http://www.w3.org/2000/svg" width="270" height="270" viewBox="0 0 270 270">
  <g fill="none" fill-rule="evenodd" transform="translate(9 26)">
    <g fill="#F8E81C" transform="rotate(-6 151.325 7.716)">
      <ellipse cx="71.921" cy="71.325" rx="39.869" ry="39.539"/>
      <path d="M69.4884149,0 L73.4753099,0 L78.4589287,23.7231452 L64.5047962,23.7231452 L69.4884149,0 Z M103.082461,7.24591706 L106.60268,9.11765088 L99.8656125,32.4036121 L87.5448448,25.8525437 L103.082461,7.24591706 Z M129.272153,29.0422743 L131.558942,32.3081475 L114.984565,49.9975261 L106.980804,38.5669699 L129.272153,29.0422743 Z M142.379471,60.596512 L142.865351,64.5536893 L119.926385,72.391285 L118.225804,58.5411645 L142.379471,60.596512 Z M139.187156,94.5900576 L137.75838,98.3121447 L113.824947,94.4631387 L118.825661,81.4358338 L139.187156,94.5900576 Z M120.55723,123.042998 L117.59439,125.710752 L98.0169565,111.415711 L108.386898,102.078574 L120.55723,123.042998 Z M90.5975665,139.780895 L86.7290993,140.745412 L76.1543671,118.932592 L89.6940022,115.556782 L90.5975665,139.780895 Z M56.2346256,140.745412 L52.3661584,139.780895 L53.2697227,115.556782 L66.8093578,118.932592 L56.2346256,140.745412 Z M25.3693353,125.710752 L22.406495,123.042998 L34.576827,102.078574 L44.9467684,111.415711 L25.3693353,125.710752 Z M5.20534458,98.3121447 L3.7765692,94.5900576 L24.138064,81.4358338 L29.1387778,94.4631387 L5.20534458,98.3121447 Z M0.0983735811,64.5536893 L0.584253855,60.596512 L24.7379207,58.5411645 L23.0373397,72.391285 L0.0983735811,64.5536893 Z M11.4047828,32.3081475 L13.6915718,29.0422743 L35.982921,38.5669699 L27.9791594,49.9975261 L11.4047828,32.3081475 Z M36.3610445,9.11765088 L39.8812638,7.24591706 L55.41888,25.8525437 L43.0981124,32.4036121 L36.3610445,9.11765088 Z"/>
    </g>
    <path fill="#DCDCDC" d="M204.005058,152.966971 C204.725313,153.01284 205.451692,153.036124 206.183499,153.036124 C224.868247,153.036124 240.015228,137.857254 240.015228,119.13317 C240.015228,101.478692 226.549352,86.9759605 209.348782,85.3766431 C203.649036,61.0842419 181.88322,43 155.902478,43 C125.580677,43 101,67.6324254 101,98.0180619 C101,99.7609106 101.080868,101.484832 101.239049,103.186263 C98.7911942,102.402192 96.1823996,101.978945 93.4749581,101.978945 C82.302978,101.978945 72.8106749,109.185637 69.3748111,119.213044 C61.2340803,120.467033 55,127.516674 55,136.025429 C55,144.928791 61.8257193,152.234564 70.5193,152.974453 L70.5193,153.036124 L204.005067,153.036124 L204.005067,152.966971 Z"/>
    <g fill="#4DC2D9" transform="translate(96 158)">
      <path d="M20.5 60C31.8218374 60 41 50.9722991 41 39.8360656 41 28.6998321 20.5 0 20.5 0 20.5 0 0 28.6998321 0 39.8360656 0 50.9722991 9.17816263 60 20.5 60zM85.5 60C96.8218374 60 106 50.9722991 106 39.8360656 106 28.6998321 85.5 0 85.5 0 85.5 0 65 28.6998321 65 39.8360656 65 50.9722991 74.1781626 60 85.5 60z"/>
    </g>
  </g>
</svg>
